<svg version="1.1" id="Layer_1" xmlns:sketch="http://www.bohemiancoding.com/sketch/ns" xmlns="http://www.w3.org/2000/svg" xmlns:xlink="http://www.w3.org/1999/xlink" viewBox="0 0 63.00 63.00" enable-background="new 0 0 63 32" xml:space="preserve" fill="#000000"><g id="SVGRepo_bgCarrier" stroke-width="0"></g><g id="SVGRepo_tracerCarrier" stroke-linecap="round" stroke-linejoin="round"></g><g id="SVGRepo_iconCarrier"> <title>Weight</title> <desc>Created with Sketch.</desc> <g id="Page-1" sketch:type="MSPage"> <g id="Weight" transform="translate(1.000000, 1.000000)" sketch:type="MSLayerGroup"> <path id="Shape_1_" sketch:type="MSShapeGroup" fill="none" stroke="#ffffff" stroke-width="2.079" stroke-linejoin="round" d=" M10.1,26H6c-1.1,0-2-0.9-2-2V6c0-1.1,0.9-2,2-2h4.1v3V2c0-1.1,0.9-2,2-2h4c1.1,0,2,0.9,2,2v26c0,1.1-0.9,2-2,2h-4 c-1.1,0-2-0.9-2-2v-5V26z"></path> <path id="Shape_3_" sketch:type="MSShapeGroup" fill="none" stroke="#ffffff" stroke-width="2.079" stroke-linejoin="round" d=" M52.1,23v5c0,1.1-0.9,2-2,2h-4c-1.1,0-2-0.9-2-2V2c0-1.1,0.9-2,2-2h4c1.1,0,2,0.9,2,2v5V4h3c1.1,0,2,0.9,2,2v18c0,1.1-0.9,2-2,2 h-3V23z"></path> <line id="Rectangle-path_1_" sketch:type="MSShapeGroup" fill="none" stroke="#ffffff" stroke-width="2.079" x1="44" y1="15" x2="18.1" y2="15"> </line> <path id="Shape_2_" sketch:type="MSShapeGroup" fill="none" stroke="#ffffff" stroke-width="2.079" d="M4,15H0.1"></path> <path id="Shape_6_" sketch:type="MSShapeGroup" fill="none" stroke="#ffffff" stroke-width="2.079" d="M61,15h-3.9"></path> </g> </g> </g></svg>
